# xmcd CD database file
#
# Track frame offsets:
#	150
#	31577
#	46159
#	66238
#	87709
#	114595
#	143416
#	172694
#	193238
#
# Disc length: 2954 seconds
#
# Revision: 0
# Processed by: cddbd v1.4PL0 Copyright (c) Steve Scherf et al.
# Submitted via: NeoAudio 9.9.9
#
DISCID=700b8809
DTITLE=Rob Hunt Trio - Con Alma
DYEAR=2002
DGENRE=Jazz
TTITLE0=Angel Eyes
TTITLE1=Anthropology
TTITLE2=Never Will I Marry
TTITLE3=Con Alma
TTITLE4=Here's That Rainy Day
TTITLE5=Come Rain Or Come Shine
TTITLE6=Wait 'Till You See Her
TTITLE7=If I Should Lose You
TTITLE8=Angel Eyes (Take 2)
EXTD=YEAR: 2002
EXTT0=
EXTT1=
EXTT2=
EXTT3=
EXTT4=
EXTT5=
EXTT6=
EXTT7=
EXTT8=
PLAYORDER=
